<svg width="64" height="64" viewBox="0 0 64 64" fill="none" xmlns="http://www.w3.org/2000/svg">
<path d="M45.9999 40C44.5028 40.0076 43.0266 40.3511 41.68 41.0054C40.3335 41.6596 39.151 42.6078 38.2199 43.78L23.5999 34.64C24.1327 32.9204 24.1327 31.0797 23.5999 29.36L38.2199 20.22C39.7038 22.0575 41.7901 23.3104 44.1093 23.7569C46.4285 24.2033 48.8309 23.8145 50.8909 22.6593C52.9509 21.5041 54.5356 19.657 55.3641 17.4453C56.1927 15.2336 56.2117 12.8001 55.4178 10.5757C54.6239 8.35134 53.0683 6.47976 51.0266 5.2925C48.9849 4.10524 46.5889 3.67894 44.263 4.08911C41.9371 4.49929 39.8314 5.71946 38.319 7.53348C36.8066 9.3475 35.985 11.6383 35.9999 14C36.0093 14.8944 36.144 15.783 36.3999 16.64L21.7799 25.78C20.4892 24.1552 18.725 22.9721 16.7318 22.3948C14.7386 21.8175 12.6152 21.8746 10.6559 22.5581C8.6966 23.2416 6.99846 24.5177 5.79685 26.2094C4.59525 27.9012 3.94971 29.9249 3.94971 32C3.94971 34.0751 4.59525 36.0988 5.79685 37.7906C6.99846 39.4824 8.6966 40.7585 10.6559 41.442C12.6152 42.1255 14.7386 42.1826 16.7318 41.6053C18.725 41.0279 20.4892 39.8449 21.7799 38.22L36.3999 47.36C36.144 48.2171 36.0093 49.1057 35.9999 50C35.9999 51.9779 36.5864 53.9113 37.6852 55.5557C38.784 57.2002 40.3458 58.482 42.173 59.2388C44.0003 59.9957 46.011 60.1937 47.9508 59.8079C49.8906 59.422 51.6724 58.4696 53.0709 57.0711C54.4695 55.6726 55.4219 53.8908 55.8077 51.9509C56.1936 50.0111 55.9956 48.0005 55.2387 46.1732C54.4818 44.3459 53.2001 42.7842 51.5556 41.6853C49.9111 40.5865 47.9777 40 45.9999 40V40ZM45.9999 8.00004C47.1866 8.00004 48.3466 8.35194 49.3333 9.01122C50.32 9.67051 51.089 10.6076 51.5432 11.7039C51.9973 12.8003 52.1161 14.0067 51.8846 15.1706C51.6531 16.3345 51.0816 17.4036 50.2425 18.2427C49.4034 19.0818 48.3343 19.6532 47.1704 19.8848C46.0065 20.1163 44.8001 19.9974 43.7038 19.5433C42.6074 19.0892 41.6703 18.3202 41.0111 17.3335C40.3518 16.3468 39.9999 15.1867 39.9999 14C39.9999 12.4087 40.632 10.8826 41.7572 9.7574C42.8825 8.63218 44.4086 8.00004 45.9999 8.00004V8.00004ZM13.9999 38C12.8132 38 11.6532 37.6481 10.6665 36.9889C9.67976 36.3296 8.91073 35.3925 8.4566 34.2961C8.00248 33.1998 7.88366 31.9934 8.11517 30.8295C8.34668 29.6656 8.91812 28.5965 9.75724 27.7574C10.5964 26.9183 11.6655 26.3468 12.8293 26.1153C13.9932 25.8838 15.1996 26.0026 16.296 26.4568C17.3923 26.9109 18.3294 27.6799 18.9887 28.6666C19.648 29.6533 19.9999 30.8134 19.9999 32C19.9999 33.5913 19.3677 35.1175 18.2425 36.2427C17.1173 37.3679 15.5912 38 13.9999 38ZM45.9999 56C44.8132 56 43.6532 55.6481 42.6665 54.9889C41.6798 54.3296 40.9107 53.3925 40.4566 52.2961C40.0025 51.1998 39.8837 49.9934 40.1152 48.8295C40.3467 47.6656 40.9181 46.5965 41.7572 45.7574C42.5964 44.9183 43.6654 44.3468 44.8293 44.1153C45.9932 43.8838 47.1996 44.0026 48.296 44.4568C49.3923 44.9109 50.3294 45.6799 50.9887 46.6666C51.648 47.6533 51.9999 48.8134 51.9999 50C51.9999 51.5913 51.3677 53.1175 50.2425 54.2427C49.1173 55.3679 47.5912 56 45.9999 56V56Z" fill="white"/>
</svg>
